#Comment line ignore any data following # character 
#Hierarchical Translation and Rotation (.htr) file 
[Header]	
#Header keywords are followed by a single value 
FileType HTR		#Single word string
DataType HTRS		#Translation followed by rotation and scale data
FileVersion 1		#integer
NumSegments 84		#integer
NumFrames 2		#integer
DataFrameRate 30		#integer, data frame rate in this file
EulerRotationOrder ZYX
CalibrationUnits mm
RotationUnits Degrees
GlobalAxisofGravity Y
BoneLengthAxis Y
ScaleFactor 1.00
[SegmentNames&Hierarchy]
#CHILD	PARENT
MASTER GLOBAL
root MASTER
chest root
L_mid_tent01 root
R_mid_tent01 root
spine01 root
Bip01_Neck chest
L_humerus chest
R_humerus chest
weapon_bone chest
Bip01_Head Bip01_Neck
eye_left_bone Bip01_Head
eye_right_bone Bip01_Head
L_forearm L_humerus
L_front_hand L_forearm
L_weapon_bone L_forearm
L_front_hand01_01 L_front_hand
L_front_hand02_01 L_front_hand
L_front_hand03_01 L_front_hand
L_front_hand01_02 L_front_hand01_01
L_front_hand02_02 L_front_hand02_01
L_front_hand03_02 L_front_hand03_01
R_forearm R_humerus
R_front_hand R_forearm
R_weapon_bone R_forearm
R_front_hand01_01 R_front_hand
R_front_hand02_01 R_front_hand
R_front_hand03_01 R_front_hand
R_front_hand01_02 R_front_hand01_01
R_front_hand02_02 R_front_hand02_01
R_front_hand03_02 R_front_hand03_01
null_rope01_connect L_mid_tent01
Rope1_Seg01 null_rope01_connect
Rope1_Seg02 Rope1_Seg01
Rope1_Seg03 Rope1_Seg02
Rope1_Seg04 Rope1_Seg03
Rope1_Seg05 Rope1_Seg04
Rope1_Seg06 Rope1_Seg05
Rope1_Seg07 Rope1_Seg06
Rope1_Seg09 Rope1_Seg07
L_mid_hand01 Rope1_Seg09
L_mid_hand02 Rope1_Seg09
L_mid_hand03 Rope1_Seg09
null_rope02_connect R_mid_tent01
Rope2_Seg01 null_rope02_connect
Rope2_Seg02 Rope2_Seg01
Rope2_Seg03 Rope2_Seg02
Rope2_Seg04 Rope2_Seg03
Rope2_Seg05 Rope2_Seg04
Rope2_Seg06 Rope2_Seg05
Rope2_Seg07 Rope2_Seg06
Rope2_Seg09 Rope2_Seg07
R_mid_hand01 Rope2_Seg09
R_mid_hand02 Rope2_Seg09
R_mid_hand03 Rope2_Seg09
spine02 spine01
spine03 spine02
pelvis spine03
null_rope03_connect pelvis
null_rope04_connect pelvis
Rope3_Seg01 null_rope03_connect
Rope3_Seg02 Rope3_Seg01
Rope3_Seg03 Rope3_Seg02
Rope3_Seg04 Rope3_Seg03
Rope3_Seg05 Rope3_Seg04
Rope3_Seg06 Rope3_Seg05
Rope3_Seg07 Rope3_Seg06
Rope3_Seg08 Rope3_Seg07
Rope3_Seg09 Rope3_Seg08
R_rear_hand01 Rope3_Seg09
R_rear_hand02 Rope3_Seg09
R_rear_hand03 Rope3_Seg09
Rope4_Seg01 null_rope04_connect
Rope4_Seg02 Rope4_Seg01
Rope4_Seg03 Rope4_Seg02
Rope4_Seg04 Rope4_Seg03
Rope4_Seg05 Rope4_Seg04
Rope4_Seg06 Rope4_Seg05
Rope4_Seg07 Rope4_Seg06
Rope4_Seg08 Rope4_Seg07
Rope4_Seg09 Rope4_Seg08
L_rear_hand01 Rope4_Seg09
L_rear_hand02 Rope4_Seg09
L_rear_hand03 Rope4_Seg09
[BasePosition]
#SegmentName Tx, Ty, Tz, Rx, Ry, Rz, BoneLength
MASTER 0.000000 0.000000 0.000000 -90.000000 0.000000 0.000000 10.000000 
root 0.000000 0.000000 0.000000 0.000000 0.000000 0.000000 10.000000 
chest 0.000000 0.000000 0.000000 0.000000 0.000000 0.000000 10.000000 
L_mid_tent01 0.000000 0.000000 0.000000 0.000000 0.000000 0.000000 10.000000 
R_mid_tent01 0.000000 0.000000 0.000000 0.000000 0.000000 0.000000 10.000000 
spine01 0.000000 0.000000 0.000000 0.000000 0.000000 0.000000 10.000000 
Bip01_Neck 0.000000 0.000000 0.000000 0.000000 0.000000 0.000000 10.000000 
L_humerus 0.000000 0.000000 0.000000 0.000000 0.000000 0.000000 10.000000 
R_humerus 0.000000 0.000000 0.000000 0.000000 0.000000 0.000000 10.000000 
weapon_bone 0.000000 0.000000 0.000000 0.000000 0.000000 0.000000 10.000000 
Bip01_Head 0.000000 0.000000 0.000000 0.000000 0.000000 0.000000 10.000000 
eye_left_bone 0.000000 0.000000 0.000000 0.000000 0.000000 0.000000 10.000000 
eye_right_bone 0.000000 0.000000 0.000000 0.000000 0.000000 0.000000 10.000000 
L_forearm 0.000000 0.000000 0.000000 0.000000 0.000000 0.000000 10.000000 
L_front_hand 0.000000 0.000000 0.000000 0.000000 0.000000 0.000000 10.000000 
L_weapon_bone 0.000000 0.000000 0.000000 0.000000 0.000000 0.000000 10.000000 
L_front_hand01_01 0.000000 0.000000 0.000000 0.000000 0.000000 0.000000 10.000000 
L_front_hand02_01 0.000000 0.000000 0.000000 0.000000 0.000000 0.000000 10.000000 
L_front_hand03_01 0.000000 0.000000 0.000000 0.000000 0.000000 0.000000 10.000000 
L_front_hand01_02 0.000000 0.000000 0.000000 0.000000 0.000000 0.000000 10.000000 
L_front_hand02_02 0.000000 0.000000 0.000000 0.000000 0.000000 0.000000 10.000000 
L_front_hand03_02 0.000000 0.000000 0.000000 0.000000 0.000000 0.000000 10.000000 
R_forearm 0.000000 0.000000 0.000000 0.000000 0.000000 0.000000 10.000000 
R_front_hand 0.000000 0.000000 0.000000 0.000000 0.000000 0.000000 10.000000 
R_weapon_bone 0.000000 0.000000 0.000000 0.000000 0.000000 0.000000 10.000000 
R_front_hand01_01 0.000000 0.000000 0.000000 0.000000 0.000000 0.000000 10.000000 
R_front_hand02_01 0.000000 0.000000 0.000000 0.000000 0.000000 0.000000 10.000000 
R_front_hand03_01 0.000000 0.000000 0.000000 0.000000 0.000000 0.000000 10.000000 
R_front_hand01_02 0.000000 0.000000 0.000000 0.000000 0.000000 0.000000 10.000000 
R_front_hand02_02 0.000000 0.000000 0.000000 0.000000 0.000000 0.000000 10.000000 
R_front_hand03_02 0.000000 0.000000 0.000000 0.000000 0.000000 0.000000 10.000000 
null_rope01_connect 0.000000 0.000000 0.000000 0.000000 0.000000 0.000000 10.000000 
Rope1_Seg01 0.000000 0.000000 0.000000 0.000000 0.000000 0.000000 10.000000 
Rope1_Seg02 0.000000 0.000000 0.000000 0.000000 0.000000 0.000000 10.000000 
Rope1_Seg03 0.000000 0.000000 0.000000 0.000000 0.000000 0.000000 10.000000 
Rope1_Seg04 0.000000 0.000000 0.000000 0.000000 0.000000 0.000000 10.000000 
Rope1_Seg05 0.000000 0.000000 0.000000 0.000000 0.000000 0.000000 10.000000 
Rope1_Seg06 0.000000 0.000000 0.000000 0.000000 0.000000 0.000000 10.000000 
Rope1_Seg07 0.000000 0.000000 0.000000 0.000000 0.000000 0.000000 10.000000 
Rope1_Seg09 0.000000 0.000000 0.000000 0.000000 0.000000 0.000000 10.000000 
L_mid_hand01 0.000000 0.000000 0.000000 0.000000 0.000000 0.000000 10.000000 
L_mid_hand02 0.000000 0.000000 0.000000 0.000000 0.000000 0.000000 10.000000 
L_mid_hand03 0.000000 0.000000 0.000000 0.000000 0.000000 0.000000 10.000000 
null_rope02_connect 0.000000 0.000000 0.000000 0.000000 0.000000 0.000000 10.000000 
Rope2_Seg01 0.000000 0.000000 0.000000 0.000000 0.000000 0.000000 10.000000 
Rope2_Seg02 0.000000 0.000000 0.000000 0.000000 0.000000 0.000000 10.000000 
Rope2_Seg03 0.000000 0.000000 0.000000 0.000000 0.000000 0.000000 10.000000 
Rope2_Seg04 0.000000 0.000000 0.000000 0.000000 0.000000 0.000000 10.000000 
Rope2_Seg05 0.000000 0.000000 0.000000 0.000000 0.000000 0.000000 10.000000 
Rope2_Seg06 0.000000 0.000000 0.000000 0.000000 0.000000 0.000000 10.000000 
Rope2_Seg07 0.000000 0.000000 0.000000 0.000000 0.000000 0.000000 10.000000 
Rope2_Seg09 0.000000 0.000000 0.000000 0.000000 0.000000 0.000000 10.000000 
R_mid_hand01 0.000000 0.000000 0.000000 0.000000 0.000000 0.000000 10.000000 
R_mid_hand02 0.000000 0.000000 0.000000 0.000000 0.000000 0.000000 10.000000 
R_mid_hand03 0.000000 0.000000 0.000000 0.000000 0.000000 0.000000 10.000000 
spine02 0.000000 0.000000 0.000000 0.000000 0.000000 0.000000 10.000000 
spine03 0.000000 0.000000 0.000000 0.000000 0.000000 0.000000 10.000000 
pelvis 0.000000 0.000000 0.000000 0.000000 0.000000 0.000000 10.000000 
null_rope03_connect 0.000000 0.000000 0.000000 0.000000 0.000000 0.000000 10.000000 
null_rope04_connect 0.000000 0.000000 0.000000 0.000000 0.000000 0.000000 10.000000 
Rope3_Seg01 0.000000 0.000000 0.000000 0.000000 0.000000 0.000000 10.000000 
Rope3_Seg02 0.000000 0.000000 0.000000 0.000000 0.000000 0.000000 10.000000 
Rope3_Seg03 0.000000 0.000000 0.000000 0.000000 0.000000 0.000000 10.000000 
Rope3_Seg04 0.000000 0.000000 0.000000 0.000000 0.000000 0.000000 10.000000 
Rope3_Seg05 0.000000 0.000000 0.000000 0.000000 0.000000 0.000000 10.000000 
Rope3_Seg06 0.000000 0.000000 0.000000 0.000000 0.000000 0.000000 10.000000 
Rope3_Seg07 0.000000 0.000000 0.000000 0.000000 0.000000 0.000000 10.000000 
Rope3_Seg08 0.000000 0.000000 0.000000 0.000000 0.000000 0.000000 10.000000 
Rope3_Seg09 0.000000 0.000000 0.000000 0.000000 0.000000 0.000000 10.000000 
R_rear_hand01 0.000000 0.000000 0.000000 0.000000 0.000000 0.000000 10.000000 
R_rear_hand02 0.000000 0.000000 0.000000 0.000000 0.000000 0.000000 10.000000 
R_rear_hand03 0.000000 0.000000 0.000000 0.000000 0.000000 0.000000 10.000000 
Rope4_Seg01 0.000000 0.000000 0.000000 0.000000 0.000000 0.000000 10.000000 
Rope4_Seg02 0.000000 0.000000 0.000000 0.000000 0.000000 0.000000 10.000000 
Rope4_Seg03 0.000000 0.000000 0.000000 0.000000 0.000000 0.000000 10.000000 
Rope4_Seg04 0.000000 0.000000 0.000000 0.000000 0.000000 0.000000 10.000000 
Rope4_Seg05 0.000000 0.000000 0.000000 0.000000 0.000000 0.000000 10.000000 
Rope4_Seg06 0.000000 0.000000 0.000000 0.000000 0.000000 0.000000 10.000000 
Rope4_Seg07 0.000000 0.000000 0.000000 0.000000 0.000000 0.000000 10.000000 
Rope4_Seg08 0.000000 0.000000 0.000000 0.000000 0.000000 0.000000 10.000000 
Rope4_Seg09 0.000000 0.000000 0.000000 0.000000 0.000000 0.000000 10.000000 
L_rear_hand01 0.000000 0.000000 0.000000 0.000000 0.000000 0.000000 10.000000 
L_rear_hand02 0.000000 0.000000 0.000000 0.000000 0.000000 0.000000 10.000000 
L_rear_hand03 0.000000 0.000000 0.000000 0.000000 0.000000 0.000000 10.000000 
#Beginning of Data. Separated by tabs
#Fr	Tx	Ty	Tz	Rx	Ry	Rz	SF
[MASTER]
19 0.000000 0.000000 0.000000 0.001660 0.001660 0.001660 0.000000
20 0.000000 0.000000 0.000000 0.001660 0.001660 0.001660 0.000000
[root]
19 -16.502302 -4.444804 1458.206177 -77.118095 -25.504253 -95.471016 1458.306274
20 -16.502304 -1.113830 1455.821533 -79.011902 -26.598513 -95.885422 1455.915405
[chest]
19 -84.512650 -34.090519 0.000000 13.903157 0.254703 158.437958 91.129311
20 -84.512650 -34.090519 0.000000 11.469529 -0.415029 167.835663 91.129311
[L_mid_tent01]
19 27.299160 22.178829 -249.918594 -18.984568 31.862129 35.617050 252.381561
20 27.299154 22.178867 -249.918610 -13.605742 34.271023 45.491585 252.381577
[R_mid_tent01]
19 23.228794 24.509907 226.238495 -176.081757 -26.903570 42.998726 228.744751
20 23.228794 24.509907 226.238495 -174.287872 -25.838552 40.100952 228.744751
[spine01]
19 -0.361383 -0.195265 0.000000 0.001930 0.001337 20.582321 0.410763
20 -0.361383 -0.195265 0.000000 0.001932 0.001333 20.792290 0.410763
[Bip01_Neck]
19 165.484543 71.581718 0.000119 176.643677 -1.657967 43.431911 180.302734
20 165.484543 71.581718 0.000119 176.643677 -1.657967 43.431911 180.302734
[L_humerus]
19 -13.983130 -135.272980 -120.471481 141.714294 80.019165 -127.148956 181.680161
20 -13.983130 -135.272980 -120.471481 122.964622 83.896515 -146.091125 181.680161
[R_humerus]
19 -13.983309 -135.273102 125.287651 -178.220428 -78.834114 -86.716194 184.909012
20 -13.983309 -135.273102 125.287651 170.851822 -83.553688 -75.736534 184.909012
[weapon_bone]
19 235.964890 -300.705902 0.000000 0.000000 -89.951546 -128.212341 382.234833
20 235.964890 -300.705902 0.000000 0.000000 -89.951546 -128.212341 382.234833
[Bip01_Head]
19 213.444183 185.715561 11.776937 4.962490 2.797846 -43.898750 283.173767
20 213.444168 185.715561 11.776938 4.962490 2.797846 -43.898743 283.173767
[eye_left_bone]
19 -24.626970 125.451866 -64.772606 0.000000 -90.000000 -99.840431 143.318359
20 -24.626970 125.451866 -64.772606 0.000000 -90.000000 -99.840431 143.318359
[eye_right_bone]
19 -24.626970 125.451866 64.327362 0.000000 -89.965736 80.156380 143.117676
20 -24.626970 125.451866 64.327362 0.000000 -89.965736 80.156380 143.117676
[L_forearm]
19 322.776093 0.000000 -0.000119 0.000508 0.002292 -65.014252 322.776093
20 322.776093 0.000000 -0.000119 0.000589 0.002272 -60.948326 322.776093
[L_front_hand]
19 241.149185 -0.042021 -3.300071 31.508821 -1.833293 -27.424952 241.171753
20 241.149185 -0.042021 -3.300071 31.508818 -1.833293 -27.424950 241.171753
[L_weapon_bone]
19 156.183838 0.000000 0.000000 0.000014 0.000007 0.000001 156.183838
20 156.183838 0.000000 0.000000 0.000014 0.000007 0.000001 156.183838
[L_front_hand01_01]
19 86.095154 20.947098 -0.655860 -0.366594 -0.477154 75.385574 88.609184
20 86.095154 20.947098 -0.655860 -0.366594 -0.477154 75.385574 88.609184
[L_front_hand02_01]
19 86.935165 -11.437475 24.513514 154.399796 -59.883835 -61.369587 91.046425
20 86.935165 -11.437475 24.513514 154.399796 -59.883835 -61.369587 91.046425
[L_front_hand03_01]
19 86.637497 -14.123976 -20.424902 -153.913849 58.118122 -62.702866 90.126129
20 86.637497 -14.123976 -20.424902 -153.913849 58.118122 -62.702866 90.126129
[L_front_hand01_02]
19 71.020905 -0.000179 0.000030 0.000334 -0.002323 -106.379684 71.020905
20 71.020905 -0.000179 0.000030 0.000334 -0.002323 -106.379684 71.020905
[L_front_hand02_02]
19 71.020927 -0.000119 0.000060 0.000334 -0.002323 -106.379684 71.020927
20 71.020927 -0.000119 0.000060 0.000334 -0.002323 -106.379684 71.020927
[L_front_hand03_02]
19 71.020905 -0.000060 0.000060 0.000334 -0.002323 -106.379684 71.020905
20 71.020905 -0.000060 0.000060 0.000334 -0.002323 -106.379684 71.020905
[R_forearm]
19 322.776428 -0.000060 0.000030 0.160771 -0.141374 -50.129097 322.776428
20 322.776428 -0.000060 0.000030 0.159175 -0.143168 -48.843925 322.776428
[R_front_hand]
19 238.847015 -0.006795 2.210259 -8.879457 -10.642941 -26.315098 238.857239
20 238.847015 -0.006795 2.210259 -8.879456 -10.642940 -26.315096 238.857239
[R_weapon_bone]
19 155.664093 0.002503 -0.000030 0.003487 0.001180 -90.988930 155.664078
20 155.664093 0.002503 -0.000030 0.003487 0.001180 -90.988930 155.664078
[R_front_hand01_01]
19 87.624611 14.231146 22.918642 -154.633499 -59.950619 61.746044 91.683487
20 87.624611 14.231146 22.918642 -154.633499 -59.950619 61.746044 91.683487
[R_front_hand02_01]
19 89.356956 14.367283 -19.491137 154.602661 58.302849 63.744389 92.579636
20 89.356956 14.367283 -19.491137 154.602661 58.302849 63.744389 92.579636
[R_front_hand03_01]
19 87.286232 -22.307278 -0.143439 0.162155 -0.423168 -75.767921 90.091743
20 87.286232 -22.307278 -0.143439 0.162155 -0.423168 -75.767921 90.091743
[R_front_hand01_02]
19 71.020905 0.000060 0.000119 0.002323 -0.000334 106.381714 71.020905
20 71.020905 0.000060 0.000119 0.002323 -0.000334 106.381714 71.020905
[R_front_hand02_02]
19 71.020844 -0.000030 -0.000119 0.002323 -0.000334 106.381714 71.020836
20 71.020844 -0.000030 -0.000119 0.002323 -0.000334 106.381714 71.020836
[R_front_hand03_02]
19 71.020905 0.000000 0.000030 0.002323 -0.000334 106.381714 71.020905
20 71.020905 0.000000 0.000030 0.002323 -0.000334 106.381714 71.020905
[null_rope01_connect]
19 328.732483 0.000000 -0.000238 -118.196114 -60.352032 -169.556763 328.732483
20 328.732483 0.000000 -0.000238 -118.978752 -58.406990 -176.209274 328.732483
[Rope1_Seg01]
19 -0.000011 -0.000021 0.000043 -34.868332 23.556114 -105.716507 0.000049
20 -0.000009 -0.000018 0.000037 -33.966652 23.333298 -105.351204 0.000042
[Rope1_Seg02]
19 139.999863 -0.000179 0.000000 29.237179 -11.917591 -2.855201 139.999863
20 139.999863 -0.000179 0.000000 34.199593 -12.490275 -4.853415 139.999863
[Rope1_Seg03]
19 139.999924 0.000060 -0.000060 11.606704 -11.147418 2.201976 139.999924
20 139.999924 0.000060 -0.000060 13.326181 -13.911859 2.647997 139.999924
[Rope1_Seg04]
19 139.999924 -0.000060 -0.000119 6.719615 -9.837004 2.705016 139.999924
20 139.999924 -0.000060 -0.000119 7.946573 -15.422779 4.569204 139.999924
[Rope1_Seg05]
19 139.999832 0.000119 -0.000060 -3.064403 -0.951994 5.451751 139.999832
20 139.999832 0.000119 -0.000060 -1.754506 -1.390403 4.787931 139.999832
[Rope1_Seg06]
19 139.999954 0.000119 -0.000060 -6.785356 3.988947 6.957995 139.999954
20 139.999954 0.000119 -0.000060 -7.016735 8.763999 3.941908 139.999954
[Rope1_Seg07]
19 139.999985 0.000060 0.000000 -3.273745 0.970049 4.943175 139.999985
20 139.999985 0.000060 0.000000 -4.986431 5.059250 3.731289 139.999985
[Rope1_Seg09]
19 121.602913 0.000119 -0.000089 -89.793175 -1.359789 0.847147 121.602913
20 121.602913 0.000119 -0.000089 -89.793175 -1.359789 0.847147 121.602913
[L_mid_hand01]
19 103.859421 1.038730 8.195221 110.331215 -44.470776 -15.085362 104.187431
20 103.859421 1.038730 8.195221 111.331635 -47.044144 -16.484426 104.187431
[L_mid_hand02]
19 105.572853 -4.139662 -10.864139 -148.937714 33.668659 -42.029243 106.211075
20 105.572853 -4.139662 -10.864139 -150.562561 35.052639 -44.910461 106.211075
[L_mid_hand03]
19 104.641464 17.579376 -3.913581 -13.360330 13.301838 47.989159 106.179977
20 104.641464 17.579376 -3.913581 -12.713109 13.922001 50.749584 106.179977
[null_rope02_connect]
19 328.732849 0.000179 -0.000119 -131.910095 56.177784 -26.576109 328.732849
20 328.732849 0.000179 -0.000119 -131.755005 58.811134 -29.625528 328.732849
[Rope2_Seg01]
19 0.000095 0.000153 0.000055 55.936611 -20.790829 -66.029144 0.000188
20 0.000095 0.000153 0.000058 52.849560 -22.168406 -63.921822 0.000189
[Rope2_Seg02]
19 139.999741 -0.000060 -0.000119 4.143805 1.209744 -4.910259 139.999756
20 139.999741 -0.000060 -0.000119 5.344552 0.142864 -5.781940 139.999756
[Rope2_Seg03]
19 140.000107 0.000030 0.000000 3.448844 0.545246 -3.584647 140.000107
20 140.000107 0.000030 0.000000 3.868513 0.250318 -3.989096 140.000107
[Rope2_Seg04]
19 139.999802 0.000000 -0.000060 4.133847 0.455947 -3.941829 139.999802
20 139.999802 0.000000 -0.000060 4.998099 -0.932237 -4.366845 139.999802
[Rope2_Seg05]
19 139.999985 -0.000060 0.000119 4.611969 0.369405 -4.087655 139.999985
20 139.999985 -0.000060 0.000119 5.281341 -2.599016 -3.981683 139.999985
[Rope2_Seg06]
19 139.999893 -0.000030 -0.000119 2.845900 0.020527 -2.352869 139.999893
20 139.999893 -0.000030 -0.000119 2.757007 -1.605655 -2.090342 139.999893
[Rope2_Seg07]
19 139.999893 0.000060 -0.000060 1.827720 -0.069140 -1.453698 139.999893
20 139.999893 0.000060 -0.000060 1.625121 -0.989445 -1.268772 139.999893
[Rope2_Seg09]
19 121.338966 0.000089 -0.000060 33.793236 -1.359788 -0.847141 121.338966
20 121.338966 0.000089 -0.000060 33.793236 -1.359788 -0.847141 121.338966
[R_mid_hand01]
19 104.680779 11.144459 -10.335981 -36.495327 32.739510 38.894321 105.778534
20 104.680779 11.144459 -10.335981 -37.023243 32.123154 37.917080 105.778534
[R_mid_hand02]
19 104.070427 2.443552 8.231699 69.926315 -43.736984 14.713636 104.424065
20 104.070427 2.443552 8.231699 70.253304 -42.771339 14.235763 104.424065
[R_mid_hand03]
19 106.028137 -11.221827 -5.996406 -170.196442 12.469419 -48.616360 106.788818
20 106.028137 -11.221827 -5.996406 -169.973053 12.289117 -47.575344 106.788818
[spine02]
19 129.756927 0.001550 0.000119 -0.044318 -4.206433 -6.976418 129.756927
20 129.756927 0.001550 0.000119 0.015584 -4.173751 -7.858028 129.756927
[spine03]
19 78.614021 0.082660 -4.898983 1.665612 4.217835 12.787647 78.766556
20 78.614021 0.082513 -4.898986 1.699823 4.142505 13.334240 78.766556
[pelvis]
19 169.435242 0.051022 0.000000 -0.019366 -0.078162 6.607010 169.435257
20 169.435242 0.051022 0.000000 -0.025841 -0.101537 7.718010 169.435257
[null_rope03_connect]
19 -1.257226 -2.466202 137.391083 0.496076 -77.706978 82.594086 137.418976
20 -1.257226 -2.466202 137.391083 -4.704569 -79.412933 87.864014 137.418976
[null_rope04_connect]
19 -1.259640 -2.480268 -137.844437 0.496076 -77.706978 82.594086 137.872513
20 -1.259640 -2.480268 -137.844437 -4.704569 -79.412933 87.864014 137.872513
[Rope3_Seg01]
19 -0.000031 0.000000 -0.000110 -130.621475 0.445323 -81.654144 0.000114
20 -0.000031 0.000000 -0.000116 -130.754730 2.114312 -83.012848 0.000120
[Rope3_Seg02]
19 139.999924 -0.000119 0.000060 0.124803 -0.223413 -2.268805 139.999924
20 139.999924 -0.000119 0.000060 0.228915 0.907084 -2.538903 139.999924
[Rope3_Seg03]
19 139.999924 -0.000119 0.000119 0.089638 1.527088 -2.307143 139.999924
20 139.999924 -0.000119 0.000119 0.194030 1.727137 -2.335160 139.999924
[Rope3_Seg04]
19 139.999924 0.000119 0.000000 -0.034717 2.256801 -2.348846 139.999924
20 139.999924 0.000119 0.000000 0.098067 2.611325 -2.717200 139.999924
[Rope3_Seg05]
19 139.999924 -0.000238 0.000060 0.093258 -3.358787 1.770314 139.999924
20 139.999924 -0.000238 0.000060 0.008551 -2.244100 1.416263 139.999924
[Rope3_Seg06]
19 139.999893 -0.000119 -0.000060 0.203364 -6.904665 4.380323 139.999893
20 139.999893 -0.000119 -0.000060 -0.079682 -5.565265 4.220233 139.999893
[Rope3_Seg07]
19 139.999771 0.000060 -0.000119 0.353525 -6.184902 4.034895 139.999771
20 139.999771 0.000060 -0.000119 -0.118349 -6.059877 4.699363 139.999771
[Rope3_Seg08]
19 139.999985 -0.000060 0.000000 0.527755 -2.776708 1.769929 139.999985
20 139.999985 -0.000060 0.000000 0.304966 -2.704775 2.032767 139.999985
[Rope3_Seg09]
19 90.185997 -0.000179 -0.000060 89.793228 -1.359877 -0.847183 90.185997
20 90.185997 -0.000179 -0.000060 89.793228 -1.359877 -0.847183 90.185997
[R_rear_hand01]
19 103.366196 -6.073594 -10.757982 -164.915863 19.747875 -40.821388 104.101845
20 103.366196 -6.073594 -10.757982 -164.755127 19.627697 -40.352161 104.101845
[R_rear_hand02]
19 100.509819 12.039542 -7.992327 -30.611040 25.017698 38.577400 101.543350
20 100.509819 12.039542 -7.992327 -30.792652 24.782450 38.141541 101.543350
[R_rear_hand03]
19 101.539970 5.215704 5.435467 82.396393 -41.501781 8.918384 101.819031
20 101.539970 5.215704 5.435467 82.448357 -41.048256 8.840384 101.819031
[Rope4_Seg01]
19 -0.000031 0.000000 -0.000110 48.963055 0.874378 -103.666855 0.000114
20 -0.000031 0.000000 -0.000116 48.877682 1.472790 -105.760117 0.000120
[Rope4_Seg02]
19 139.999985 0.000060 0.000119 -0.095145 1.354312 -4.001620 139.999985
20 139.999985 0.000060 0.000119 -0.149452 3.471615 -2.536423 139.999985
[Rope4_Seg03]
19 139.999924 0.000000 -0.000238 -0.095664 1.898858 -3.482704 139.999924
20 139.999924 0.000000 -0.000238 0.013399 3.336361 -2.145407 139.999924
[Rope4_Seg04]
19 139.999985 0.000000 0.000119 0.005538 7.230051 -3.155071 139.999985
20 139.999985 0.000000 0.000119 0.385052 8.892275 -2.215705 139.999985
[Rope4_Seg05]
19 139.999802 -0.000060 -0.000119 0.173036 -3.324432 -2.324023 139.999802
20 139.999802 -0.000060 -0.000119 0.228382 -0.371680 -1.280047 139.999802
[Rope4_Seg06]
19 139.999924 0.000000 0.000060 1.217278 -17.191885 -2.018204 139.999924
20 139.999924 0.000000 0.000060 0.004726 -13.063467 -0.287593 139.999924
[Rope4_Seg07]
19 139.999802 0.000000 0.000000 2.942841 -16.306803 -1.554561 139.999802
20 139.999802 0.000000 0.000000 1.709134 -16.962265 0.051860 139.999802
[Rope4_Seg08]
19 139.999924 0.000000 0.000119 0.701375 -8.265819 -0.693648 139.999924
20 139.999924 0.000000 0.000119 -0.018365 -7.828501 0.002919 139.999924
[Rope4_Seg09]
19 90.185791 0.000060 0.000060 -135.617828 2.228885 0.850567 90.185791
20 90.185791 0.000060 0.000060 -135.617828 2.228885 0.850567 90.185791
[L_rear_hand01]
19 101.696655 -8.392275 -7.654577 -27.588619 -28.361088 134.712097 102.329041
20 101.696655 -8.392275 -7.654577 -26.201536 -29.631567 131.847122 102.329041
[L_rear_hand02]
19 102.726799 -1.568258 5.773216 81.431328 48.300430 169.720108 102.900848
20 102.726799 -1.568258 5.773216 80.925568 51.072418 169.054459 102.900848
[L_rear_hand03]
19 104.552910 9.721220 -10.420293 -167.421646 -21.393099 -132.057724 105.519653
20 104.552910 9.721220 -10.420293 -168.512375 -21.976343 -129.102875 105.519653
